<?xml version="1.0" encoding="UTF-8"?>
<svg version="1.1" xmlns="http://www.w3.org/2000/svg" width="512" height="512">
<path d="M0 0 C1.15667679 -0.00860046 2.31335358 -0.01720093 3.50508118 -0.02606201 C5.41811539 -0.03245193 5.41811539 -0.03245193 7.36979675 -0.03897095 C8.72156994 -0.04687141 10.07334102 -0.05514032 11.42510986 -0.06375122 C15.87043746 -0.08997711 20.3157745 -0.10527906 24.76115417 -0.11953735 C26.29087009 -0.12489674 27.82058595 -0.13027424 29.35030174 -0.13566971 C35.7129335 -0.15729896 42.07556271 -0.17603613 48.43822193 -0.1872921 C57.55987949 -0.20353453 66.68111128 -0.23671837 75.80260831 -0.29369295 C82.21456341 -0.33237922 88.62640456 -0.35192318 95.03847331 -0.35721266 C98.8690309 -0.3608679 102.69913445 -0.37290642 106.52956581 -0.4053154 C110.1338448 -0.43537371 113.73739452 -0.44171654 117.34177208 -0.42993164 C119.29344376 -0.42960544 121.24507027 -0.45408607 123.19657898 -0.47930908 C132.73810547 -0.41118743 132.73810547 -0.41118743 135.81686401 2.50286865 C138.73018031 6.94854639 138.68833934 10.74780971 138.65177917 15.8843689 C138.65077209 16.54972656 138.64976501 17.21508423 138.64872742 17.90060425 C138.64350399 20.38088713 138.6295427 22.86114541 138.61662292 25.34140015 C138.59599792 30.88952515 138.57537292 36.43765015 138.55412292 42.15390015 C160.00412292 42.15390015 181.45412292 42.15390015 203.55412292 42.15390015 C203.88412292 40.50390015 204.21412292 38.85390015 204.55412292 37.15390015 C212.36983893 23.63590155 224.41373922 15.78166395 239.26506042 11.7124939 C255.58308638 7.73045002 272.61355742 10.21368857 287.32365417 18.1421814 C297.68509737 24.59459161 305.33411305 33.21665632 308.55412292 45.15390015 C309.67043463 58.29003323 308.30826545 68.55241898 299.65959167 78.98983765 C288.47220161 90.48856509 274.14896991 96.28630271 258.29533386 96.53427124 C241.0411559 96.50262803 226.14151758 93.67288179 213.17912292 81.34140015 C208.65473413 76.57206037 203.55412292 71.03058629 203.55412292 64.15390015 C182.10412292 64.15390015 160.65412292 64.15390015 138.55412292 64.15390015 C136.68239786 88.21364454 136.68239786 88.21364454 144.67131042 95.77108765 C147.91619931 97.575799 147.91619931 97.575799 151.42912292 99.02890015 C152.63154445 99.63888861 153.82865011 100.25946012 155.02043152 100.88998413 C157.40534525 102.14011419 159.79662724 103.32895168 162.2240448 104.50009155 C166.76670952 106.75610407 170.94975771 109.42922336 175.17912292 112.21640015 C176.67978696 113.17257691 178.18242977 114.12565448 179.68693542 115.07577515 C180.456828 115.5636853 181.22672058 116.05159546 182.01994324 116.55429077 C188.0053098 120.33233718 194.01501012 124.07176812 200.02140808 127.81625366 C200.97064148 128.40849731 201.91987488 129.00074097 202.89787292 129.6109314 C204.13827332 130.38400635 204.13827332 130.38400635 205.4037323 131.17269897 C206.44336121 131.82649536 207.48299011 132.48029175 208.55412292 133.15390015 C209.27172287 133.53946579 209.98932281 133.92503143 210.72866821 134.32228088 C221.12439836 140.26891253 229.04034454 149.10143463 237.40177917 157.5406189 C239.10689394 159.24812143 240.81275261 160.95488138 242.51931763 162.66093445 C246.07646813 166.22119873 249.62684136 169.78803681 253.17204285 173.36019897 C257.71805257 177.94034159 262.27727286 182.50705232 266.84113407 187.06939983 C270.35638824 190.58519719 273.86641156 194.10617697 277.37467766 197.6289463 C279.05483101 199.31546302 280.73619755 201.00077202 282.41879463 202.68485069 C284.76203658 205.03242158 287.0985804 207.38645401 289.43327332 209.74252319 C290.12880814 210.43715164 290.82434296 211.13178009 291.54095459 211.84745789 C292.17569702 212.49073029 292.81043945 213.13400269 293.4644165 213.79676819 C294.01611039 214.35181376 294.56780428 214.90685934 295.13621616 215.47872448 C297.44975952 218.21204351 298.46615834 220.479505 298.92912292 224.02890015 C298.13748511 230.62588194 292.84803907 235.14372715 288.31681824 239.61825562 C287.70175919 240.23360672 287.08670013 240.84895782 286.45300293 241.48295593 C284.43412586 243.50044807 282.40827447 245.51077753 280.38224792 247.52108765 C278.9750525 248.92454997 277.56830019 250.32845671 276.16197205 251.73278809 C272.47074368 255.4164034 268.77354736 259.09397119 265.07505798 262.77029419 C261.29751586 266.52732771 257.52567364 270.29007406 253.75334167 274.05233765 C246.35915629 281.42511419 238.95865087 288.79151179 231.55412292 296.15390015 C236.80897585 299.87300308 242.04776458 303.56787845 247.55021667 306.9156189 C249.11594421 307.87262695 249.11594421 307.87262695 250.71330261 308.84896851 C251.79514832 309.50647095 252.87699402 310.16397339 253.99162292 310.84140015 C256.29873681 312.25102418 258.60422844 313.66329029 260.90959167 315.07577515 C261.47815887 315.42381699 262.04672607 315.77185883 262.63252258 316.13044739 C267.71486073 319.24460856 272.76716728 322.40447491 277.80412292 325.59140015 C278.4917572 326.02605591 279.17939148 326.46071167 279.88786316 326.90853882 C280.90602112 327.55399658 280.90602112 327.55399658 281.94474792 328.2124939 C282.98052727 328.83777733 282.98052727 328.83777733 284.03723145 329.47569275 C286.55412292 331.15390015 286.55412292 331.15390015 289.03404236 333.37625122 C300.56848086 342.69650956 313.64568952 341.35275256 327.82490158 341.13664842 C331.38413154 341.09314882 334.94318029 341.10461075 338.50260925 341.1108551 C345.22799746 341.11522339 351.95236333 341.07753838 358.6774931 341.02128667 C370.73605411 340.9211483 382.79476728 340.87988483 394.85372543 340.87454623 C399.07907208 340.87082213 403.30346354 340.84416947 407.52855778 340.79846823 C410.7700848 340.76764164 414.01169532 340.7616215 417.25334167 340.75082397 C418.41602066 340.73165421 419.57869965 340.71248444 420.77661133 340.69273376 C426.98820036 340.69797859 430.88135103 340.87613166 435.55412292 345.15390015 C437.23587393 348.51740215 436.71973141 352.32205402 436.73112488 356.02230835 C436.73769608 356.94115814 436.74426727 357.86000793 436.7510376 358.80670166 C436.77079398 361.85602901 436.78243811 364.90530707 436.79240417 367.9546814 C436.7964797 368.99469992 436.80055523 370.03471844 436.80475426 371.10625267 C436.8256245 376.61033302 436.83992236 382.11438837 436.84928894 387.61849976 C436.86035827 393.3083367 436.89476168 398.99778309 436.93446064 404.68748188 C436.96058479 409.05836218 436.96897702 413.42914882 436.97257042 417.80010033 C436.97744687 419.89768297 436.98909081 421.99526114 437.00760841 424.09276772 C437.0319113 427.02793093 437.03105097 429.96207568 437.02409363 432.89730835 C437.04330872 434.19811089 437.04330872 434.19811089 437.06291199 435.52519226 C437.02765976 439.60350995 436.87736806 441.64196305 434.64974976 445.16993713 C431.38486152 448.26085838 429.51091918 448.28349386 425.10824585 448.30780029 C423.95156906 448.31640076 422.79489227 448.32500122 421.60316467 448.3338623 C420.32780853 448.33812225 419.05245239 448.3423822 417.7384491 448.34677124 C416.38667591 448.3546717 415.03490483 448.36294062 413.68313599 448.37155151 C409.23780839 448.3977774 404.79247135 448.41307935 400.34709167 448.42733765 C398.81737576 448.43269703 397.2876599 448.43807454 395.75794411 448.44347 C389.39531235 448.46509926 383.03268314 448.48383643 376.67002392 448.49509239 C367.54836636 448.51133482 358.42713457 448.54451866 349.30563754 448.60149324 C342.89368244 448.64017951 336.48184129 448.65972347 330.06977254 448.66501296 C326.23921495 448.66866819 322.4091114 448.68070671 318.57868004 448.71311569 C314.97440105 448.74317401 311.37085133 448.74951684 307.76647377 448.73773193 C305.81480209 448.73740574 303.86317558 448.76188636 301.91166687 448.78710938 C292.37014038 448.71898772 292.37014038 448.71898772 289.29138184 445.80493164 C286.37806554 441.3592539 286.41990651 437.55999058 286.45646667 432.4234314 C286.45747375 431.75807373 286.45848083 431.09271606 286.45951843 430.40719604 C286.46474186 427.92691316 286.47870314 425.44665488 286.49162292 422.96640015 C286.51224792 417.41827515 286.53287292 411.87015015 286.55412292 406.15390015 C265.10412292 406.15390015 243.65412292 406.15390015 221.55412292 406.15390015 C220.89412292 408.46390015 220.23412292 410.77390015 219.55412292 413.15390015 C211.33403196 426.2944681 198.324227 433.54959147 183.55412292 437.15390015 C166.58711235 440.67535517 149.16724061 437.25396739 134.55412292 428.15390015 C125.76608623 421.7442225 119.41333619 413.75359615 116.55412292 403.15390015 C115.43781122 390.01776706 116.7999804 379.75538131 125.44865417 369.31796265 C135.73422732 358.74614906 149.35364085 352.35232115 164.07756042 351.8531189 C166.02803188 351.83870009 167.9786089 351.83493292 169.92912292 351.84140015 C171.37545105 351.81723022 171.37545105 351.81723022 172.85099792 351.79257202 C187.30045289 351.7828874 201.60602887 356.97188828 212.11662292 367.02890015 C216.5344391 371.79606587 221.55412292 377.37194401 221.55412292 384.15390015 C243.00412292 384.15390015 264.45412292 384.15390015 286.55412292 384.15390015 C288.42584798 360.09415575 288.42584798 360.09415575 280.43693542 352.53671265 C277.19204654 350.73200129 277.19204654 350.73200129 273.67912292 349.27890015 C272.4767014 348.66891169 271.27959574 348.04834017 270.08781433 347.41781616 C267.7029006 346.1676861 265.31161861 344.97884862 262.88420105 343.80770874 C258.34153633 341.55169622 254.15848814 338.87857694 249.92912292 336.09140015 C248.42845889 335.13522338 246.92581608 334.18214581 245.42131042 333.23202515 C244.65141785 332.74411499 243.88152527 332.25620483 243.08830261 331.75350952 C237.10293604 327.97546311 231.09323573 324.23603218 225.08683777 320.49154663 C224.13760437 319.89930298 223.18837097 319.30705933 222.21037292 318.6968689 C220.96997253 317.92379395 220.96997253 317.92379395 219.70451355 317.13510132 C218.14507019 316.15440674 218.14507019 316.15440674 216.55412292 315.15390015 C215.83652298 314.7683345 215.11892303 314.38276886 214.37957764 313.98551941 C203.98384749 308.03888777 196.06790131 299.20636566 187.70646667 290.7671814 C186.00135191 289.05967887 184.29549324 287.35291892 182.58892822 285.64686584 C179.03177772 282.08660156 175.48140449 278.51976348 171.936203 274.94760132 C167.39019328 270.36745871 162.83097299 265.80074797 158.26711178 261.23840046 C154.75185761 257.7226031 151.24183429 254.20162332 147.73356819 250.67885399 C146.05341484 248.99233727 144.3720483 247.30702828 142.68945122 245.6229496 C140.34620927 243.27537871 138.00966545 240.92134629 135.67497253 238.5652771 C134.97943771 237.87064865 134.28390289 237.1760202 133.56729126 236.46034241 C132.93254883 235.81707001 132.2978064 235.17379761 131.64382935 234.5110321 C131.09213546 233.95598653 130.54044157 233.40094095 129.97202969 232.82907581 C127.65848633 230.09575678 126.64208751 227.82829529 126.17912292 224.27890015 C126.97076074 217.68191835 132.26020678 213.16407315 136.79142761 208.68954468 C137.40648666 208.07419357 138.02154572 207.45884247 138.65524292 206.82484436 C140.67411999 204.80735223 142.69997138 202.79702276 144.72599792 200.78671265 C146.13319335 199.38325032 147.53994566 197.97934358 148.9462738 196.57501221 C152.63750217 192.8913969 156.33469849 189.21382911 160.03318787 185.5375061 C163.81072999 181.78047258 167.58257221 178.01772623 171.35490417 174.25546265 C178.74908955 166.88268611 186.14959498 159.5162885 193.55412292 152.15390015 C190.15977461 149.40299002 186.78090214 146.95643595 183.04631042 144.68515015 C181.98678162 144.03771851 180.92725281 143.39028687 179.83561707 142.72323608 C178.711474 142.04035522 177.58733093 141.35747437 176.42912292 140.65390015 C174.0698987 139.21307106 171.71235407 137.76950506 169.35490417 136.32577515 C168.76984604 135.96783875 168.1847879 135.60990234 167.58200073 135.24111938 C162.56711696 132.17004116 157.5831752 129.05238585 152.61662292 125.90390015 C151.94506165 125.49381714 151.27350037 125.08373413 150.58158875 124.66122437 C146.7761271 122.30879382 143.20808156 119.93905949 139.82023621 117.01132202 C124.98254425 104.92109805 108.00254161 106.53832226 89.87303162 106.86636353 C84.90947024 106.9406991 79.94541574 106.92389577 74.98140717 106.92304993 C67.50305065 106.9316408 60.03434759 107.05315638 52.55412292 107.15390015 C52.55412292 121.34390015 52.55412292 135.53390015 52.55412292 150.15390015 C55.19412292 150.48390015 57.83412292 150.81390015 60.55412292 151.15390015 C72.13779256 154.82962844 84.01968028 161.36448513 90.28459167 172.1265564 C95.36722047 182.0624317 97.35566189 191.03153305 94.87052917 202.2359314 C91.15862328 213.24843228 83.62234434 222.13951285 73.50724792 227.8843689 C56.6530879 236.04936269 37.51926304 238.36174961 19.55412292 232.15390015 C7.78862337 227.54229731 -3.72415643 219.15853539 -9.25520325 207.4390564 C-11.38229034 202.33354287 -11.95940648 197.78130757 -11.88337708 192.27890015 C-11.87362854 191.4880603 -11.86388 190.69722046 -11.85383606 189.88241577 C-11.49751519 178.12261907 -6.8466531 171.22843244 1.55412292 163.15390015 C10.09270159 155.23182535 19.03392569 151.5939248 30.55412292 150.15390015 C30.55412292 135.96390015 30.55412292 121.77390015 30.55412292 107.15390015 C19.30544038 107.31179295 19.30544038 107.31179295 8.05754089 107.51425171 C6.63714302 107.52594483 5.21673165 107.53613518 3.79631042 107.54452515 C3.07129333 107.56498901 2.34627625 107.58545288 1.59928894 107.60653687 C-3.56755557 107.61005532 -6.47611374 106.42741402 -10.44587708 103.15390015 C-12.12762808 99.79039814 -11.61148556 95.98574628 -11.62287903 92.28549194 C-11.62945023 91.36664215 -11.63602142 90.44779236 -11.64279175 89.50109863 C-11.66254813 86.45177128 -11.67419226 83.40249322 -11.68415833 80.3531189 C-11.68823385 79.31310038 -11.69230938 78.27308186 -11.69650841 77.20154762 C-11.71737865 71.69746727 -11.73167652 66.19341192 -11.74104309 60.68930054 C-11.75211242 54.99946359 -11.78651583 49.3100172 -11.82621479 43.62031841 C-11.85233894 39.24943811 -11.86073118 34.87865148 -11.86432457 30.50769997 C-11.86920102 28.41011732 -11.88084497 26.31253915 -11.89936256 24.21503258 C-11.92366545 21.27986936 -11.92280513 18.34572461 -11.91584778 15.41049194 C-11.92865784 14.54329025 -11.9414679 13.67608856 -11.95466614 12.78260803 C-11.91941391 8.70429034 -11.76912221 6.66583725 -9.54150391 3.13786316 C-6.27661567 0.04694191 -4.40267333 0.02430644 0 0 Z M10.55412292 22.15390015 C10.55412292 42.94390015 10.55412292 63.73390015 10.55412292 85.15390015 C45.53412292 85.15390015 80.51412292 85.15390015 116.55412292 85.15390015 C116.55412292 64.36390015 116.55412292 43.57390015 116.55412292 22.15390015 C81.57412292 22.15390015 46.59412292 22.15390015 10.55412292 22.15390015 Z M228.76115417 41.7046814 C225.06725583 45.89687687 223.5823287 49.43334782 223.49162292 54.96640015 C224.51892857 61.43597976 229.53336778 65.49239036 234.36662292 69.46640015 C245.15727154 75.17909647 257.27703807 76.06845233 268.99162292 72.52890015 C275.56289778 70.00829001 281.17319861 66.72644267 285.05412292 60.71640015 C287.16169611 55.71091382 287.26737315 52.29365081 285.55412292 47.15390015 C279.79716496 38.51846321 272.01865942 34.73763956 262.05021667 32.62265015 C250.41677498 30.97940317 237.76470883 33.91729317 228.76115417 41.7046814 Z M207.68798828 169.77119446 C207.16218674 170.30418655 206.63638519 170.83717865 206.09465027 171.38632202 C205.53840469 171.94227554 204.98215912 172.49822906 204.40905762 173.07102966 C202.56461431 174.91687057 200.72736292 176.76970353 198.89006042 178.62265015 C197.61540042 179.90103874 196.34029926 181.17898761 195.06477356 182.45651245 C191.70333839 185.82559615 188.34795136 189.20064215 184.99375916 192.57693481 C181.57217777 196.01894838 178.14495135 199.45533075 174.71818542 202.8921814 C167.99127203 209.64056621 161.27073015 216.39525872 154.55412292 223.15390015 C156.14659847 227.08857564 158.86074661 229.72967791 161.83000183 232.65682983 C162.63510948 233.46237556 162.63510948 233.46237556 163.45648193 234.28419495 C165.22651575 236.05283873 167.00352149 237.81429838 168.78068542 239.57577515 C170.01137637 240.80273481 171.24162563 242.03013764 172.47145081 243.25796509 C175.70568808 246.48457502 178.945887 249.70513305 182.18736267 252.92446899 C185.49552826 256.21215687 188.79802239 259.50553083 192.10099792 262.7984314 C198.57983372 269.25583313 205.06498162 275.70685583 211.55412292 282.15390015 C215.48879842 280.5614246 218.12990069 277.84727646 221.05705261 274.87802124 C221.5940831 274.34128281 222.13111359 273.80454437 222.68441772 273.25154114 C224.45306151 271.48150732 226.21452116 269.70450158 227.97599792 267.92733765 C229.20295759 266.6966467 230.43036042 265.46639744 231.65818787 264.23657227 C234.8847978 261.00233499 238.10535583 257.76213607 241.32469177 254.5206604 C244.61237964 251.21249481 247.9057536 247.91000068 251.19865417 244.60702515 C257.65605591 238.12818936 264.10707861 231.64304146 270.55412292 225.15390015 C268.96157948 221.23066777 266.26391641 218.58117463 263.3099823 215.65097046 C262.77645645 215.11393997 262.2429306 214.57690948 261.6932373 214.02360535 C259.93310523 212.25468944 258.16578075 210.49316724 256.39787292 208.73202515 C255.17211608 207.50492109 253.94665625 206.27752026 252.72148132 205.04983521 C250.15575202 202.48115951 247.58644499 199.91613122 245.01457214 197.35360718 C241.71215007 194.06260335 238.41881898 190.76267094 235.1280899 187.45998001 C232.60103874 184.92571771 230.0692631 182.39621869 227.53601074 179.86815643 C226.31925464 178.65273765 225.10399116 177.43582278 223.89022827 176.21741486 C222.19768687 174.5198179 220.49890834 172.82872526 218.79826355 171.13925171 C218.29430557 170.63124527 217.7903476 170.12323883 217.27111816 169.59983826 C212.94053381 165.32204463 211.97806183 165.50557343 207.68798828 169.77119446 Z M14.11662292 182.84140015 C11.06372265 186.59305689 10.19071067 189.08336147 10.28068542 194.06796265 C10.99973041 199.5532487 15.40761321 203.41371652 19.49162292 206.7671814 C28.47135408 212.80469003 39.02878576 214.31013685 49.55412292 212.69296265 C57.82799915 210.89888234 64.13498135 207.74838231 69.99162292 201.59140015 C72.46909937 197.72653689 73.5988485 195.38385357 73.42912292 190.71640015 C71.5880793 183.22072253 66.91860615 179.06516438 60.55412292 175.15390015 C45.25518129 167.76227666 25.61017055 169.74093473 14.11662292 182.84140015 Z M308.55412292 363.15390015 C308.55412292 383.94390015 308.55412292 404.73390015 308.55412292 426.15390015 C343.53412292 426.15390015 378.51412292 426.15390015 414.55412292 426.15390015 C414.55412292 405.36390015 414.55412292 384.57390015 414.55412292 363.15390015 C379.57412292 363.15390015 344.59412292 363.15390015 308.55412292 363.15390015 Z M141.88224792 385.07577515 C138.87980683 389.42762797 137.75842304 392.78292593 138.55412292 398.15390015 C140.51221029 404.02816225 144.53628444 407.7424324 149.55412292 411.15390015 C160.24267792 416.45031844 171.09089297 417.29470936 182.55412292 414.15390015 C190.30843267 411.28367627 196.87773328 407.85405484 200.55412292 400.15390015 C201.82423197 396.27057823 201.83612969 393.12078048 200.67912292 389.15390015 C194.76891639 380.81007916 187.62541728 376.04226784 177.55412292 374.15390015 C164.41469101 372.96313913 151.0144926 374.57796118 141.88224792 385.07577515 Z " fill="#000000" transform="translate(43.44587707519531,31.846099853515625)"/>
</svg>
